# xmcd
# Track frame offsets:
# 150
# 12852
# 24035
# 41582
# 55317
# 71932
# 82782
# 96747
# 113770
# 126610
#
# Disc length: 1914 seconds
# Revision: 0
# Processed by: cddbd v1.4PL0 Copyright (c) Steve Scherf et al.
# Submitted via: VisiTrax 2.9.5.180 - For more info visit www.synapsa.com
#
DISCID=8307780a
DTITLE=Curtis Wright - Curtis Wright
DYEAR=1992
DGENRE=
TTITLE0=What's it to you
TTITLE1=Phonographic memory
TTITLE2=If I ever love again
TTITLE3=I can't stand to watch my old flame burn
TTITLE4=I don't know how love starts
TTITLE5=If I could stop lovin' you
TTITLE6=If you don't love me
TTITLE7=Talk to me, heart
TTITLE8=I tripped over your memory
TTITLE9=Hometown radio
EXTD=
EXTT0=
EXTT1=
EXTT2=
EXTT3=
EXTT4=
EXTT5=
EXTT6=
EXTT7=
EXTT8=
EXTT9=
PLAYORDER=
